HIERARCHY
ROOT Hips
{
    OFFSET   0.000000   0.000000   0.000000
    CHANNELS 6 Xposition Yposition Zposition Zrotation Xrotation Yrotation
    JOINT Chest
    {
        OFFSET   0.000000   8.007230   0.000000
        CHANNELS 3 Zrotation Xrotation Yrotation
        JOINT Chest2
        {
            OFFSET   0.000000  22.077100   0.000000
            CHANNELS 3 Zrotation Xrotation Yrotation
            JOINT Neck
            {
                OFFSET   0.000000  23.254700   0.000000
                CHANNELS 3 Zrotation Xrotation Yrotation
                JOINT Head
                {
                    OFFSET   0.000010  14.370000   1.956610
                    CHANNELS 3 Zrotation Xrotation Yrotation
                    End Site
                    {
                        OFFSET   0.000000  19.566000   0.000000
                    }
                }
            }
            JOINT LeftCollar
            {
                OFFSET   3.911900  19.017000  -0.467063
                CHANNELS 3 Zrotation Xrotation Yrotation
                JOINT LeftShoulder
                {
                    OFFSET  10.383700   0.000000   0.000000
                    CHANNELS 3 Zrotation Xrotation Yrotation
                    JOINT LeftElbow
                    {
                        OFFSET  26.662100   0.001671   0.000522
                        CHANNELS 3 Zrotation Xrotation Yrotation
                        JOINT LeftWrist
                        {
                            OFFSET  28.869000   0.000037  -0.000114
                            CHANNELS 3 Zrotation Xrotation Yrotation
                            JOINT LeftFinger0
                            {
                                OFFSET   2.044650  -2.323450   3.252850
                                CHANNELS 3 Zrotation Xrotation Yrotation
                                JOINT LeftFinger01
                                {
                                    OFFSET   3.088140   0.000000   0.000000
                                    CHANNELS 3 Zrotation Xrotation Yrotation
                                    JOINT LeftFinger02
                                    {
                                        OFFSET   2.639460   0.000000   0.000000
                                        CHANNELS 3 Zrotation Xrotation Yrotation
                                        End Site
                                        {
                                            OFFSET   2.582190   0.000000   0.000000
                                        }
                                    }
                                }
                            }
                            JOINT LeftFinger1
                            {
                                OFFSET   8.364480   0.000000   3.252850
                                CHANNELS 3 Zrotation Xrotation Yrotation
                                JOINT LeftFinger11
                                {
                                    OFFSET   4.646930   0.000000   0.000000
                                    CHANNELS 3 Zrotation Xrotation Yrotation
                                    JOINT LeftFinger12
                                    {
                                        OFFSET   2.323470   0.000000   0.000000
                                        CHANNELS 3 Zrotation Xrotation Yrotation
                                        End Site
                                        {
                                            OFFSET   2.273050   0.000000   0.000000
                                        }
                                    }
                                }
                            }
                            JOINT LeftFinger2
                            {
                                OFFSET   8.364490   0.000016   1.078090
                                CHANNELS 3 Zrotation Xrotation Yrotation
                                JOINT LeftFinger21
                                {
                                    OFFSET   5.111620   0.000000   0.000000
                                    CHANNELS 3 Zrotation Xrotation Yrotation
                                    JOINT LeftFinger22
                                    {
                                        OFFSET   2.788150   0.000013   0.000000
                                        CHANNELS 3 Zrotation Xrotation Yrotation
                                        End Site
                                        {
                                            OFFSET   2.727660   0.000000   0.000000
                                        }
                                    }
                                }
                            }
                            JOINT LeftFinger3
                            {
                                OFFSET   7.899780   0.000016  -1.078090
                                CHANNELS 3 Zrotation Xrotation Yrotation
                                JOINT LeftFinger31
                                {
                                    OFFSET   4.646930   0.000000   0.000000
                                    CHANNELS 3 Zrotation Xrotation Yrotation
                                    JOINT LeftFinger32
                                    {
                                        OFFSET   2.323470   0.000000   0.000000
                                        CHANNELS 3 Zrotation Xrotation Yrotation
                                        End Site
                                        {
                                            OFFSET   2.273050   0.000000   0.000000
                                        }
                                    }
                                }
                            }
                            JOINT LeftFinger4
                            {
                                OFFSET   7.435080   0.000000  -3.252850
                                CHANNELS 3 Zrotation Xrotation Yrotation
                                JOINT LeftFinger41
                                {
                                    OFFSET   3.717550   0.000000   0.000000
                                    CHANNELS 3 Zrotation Xrotation Yrotation
                                    JOINT LeftFinger42
                                    {
                                        OFFSET   1.858760   0.000000   0.000000
                                        CHANNELS 3 Zrotation Xrotation Yrotation
                                        End Site
                                        {
                                            OFFSET   1.818440   0.000000   0.000000
                                        }
                                    }
                                }
                            }
                        }
                    }
                }
            }
            JOINT RightCollar
            {
                OFFSET  -3.911900  19.017000  -0.467064
                CHANNELS 3 Zrotation Xrotation Yrotation
                JOINT RightShoulder
                {
                    OFFSET -10.383700   0.000000   0.000000
                    CHANNELS 3 Zrotation Xrotation Yrotation
                    JOINT RightElbow
                    {
                        OFFSET -26.662100   0.001633   0.000260
                        CHANNELS 3 Zrotation Xrotation Yrotation
                        JOINT RightWrist
                        {
                            OFFSET -28.869000  -0.000045  -0.000080
                            CHANNELS 3 Zrotation Xrotation Yrotation
                            JOINT RightFinger0
                            {
                                OFFSET  -2.044660  -2.323490   3.252850
                                CHANNELS 3 Zrotation Xrotation Yrotation
                                JOINT RightFinger01
                                {
                                    OFFSET  -3.088140   0.000000   0.000000
                                    CHANNELS 3 Zrotation Xrotation Yrotation
                                    JOINT RightFinger02
                                    {
                                        OFFSET  -2.639450   0.000000   0.000000
                                        CHANNELS 3 Zrotation Xrotation Yrotation
                                        End Site
                                        {
                                            OFFSET  -2.582190   0.000000   0.000000
                                        }
                                    }
                                }
                            }
                            JOINT RightFinger1
                            {
                                OFFSET  -8.364480   0.000000   3.252850
                                CHANNELS 3 Zrotation Xrotation Yrotation
                                JOINT RightFinger11
                                {
                                    OFFSET  -4.646920   0.000000   0.000000
                                    CHANNELS 3 Zrotation Xrotation Yrotation
                                    JOINT RightFinger12
                                    {
                                        OFFSET  -2.323470   0.000000   0.000000
                                        CHANNELS 3 Zrotation Xrotation Yrotation
                                        End Site
                                        {
                                            OFFSET  -2.273050   0.000000   0.000000
                                        }
                                    }
                                }
                            }
                            JOINT RightFinger2
                            {
                                OFFSET  -8.364480   0.000000   1.078090
                                CHANNELS 3 Zrotation Xrotation Yrotation
                                JOINT RightFinger21
                                {
                                    OFFSET  -5.111610   0.000000   0.000000
                                    CHANNELS 3 Zrotation Xrotation Yrotation
                                    JOINT RightFinger22
                                    {
                                        OFFSET  -2.788160   0.000000   0.000000
                                        CHANNELS 3 Zrotation Xrotation Yrotation
                                        End Site
                                        {
                                            OFFSET  -2.727660   0.000000   0.000000
                                        }
                                    }
                                }
                            }
                            JOINT RightFinger3
                            {
                                OFFSET  -7.899780   0.000000  -1.078090
                                CHANNELS 3 Zrotation Xrotation Yrotation
                                JOINT RightFinger31
                                {
                                    OFFSET  -4.646930   0.000000   0.000000
                                    CHANNELS 3 Zrotation Xrotation Yrotation
                                    JOINT RightFinger32
                                    {
                                        OFFSET  -2.323470   0.000000   0.000000
                                        CHANNELS 3 Zrotation Xrotation Yrotation
                                        End Site
                                        {
                                            OFFSET  -2.273050   0.000000   0.000000
                                        }
                                    }
                                }
                            }
                            JOINT RightFinger4
                            {
                                OFFSET  -7.435090   0.000000  -3.252850
                                CHANNELS 3 Zrotation Xrotation Yrotation
                                JOINT RightFinger41
                                {
                                    OFFSET  -3.717550   0.000000   0.000000
                                    CHANNELS 3 Zrotation Xrotation Yrotation
                                    JOINT RightFinger42
                                    {
                                        OFFSET  -1.858760   0.000000   0.000000
                                        CHANNELS 3 Zrotation Xrotation Yrotation
                                        End Site
                                        {
                                            OFFSET  -1.818440   0.000000   0.000000
                                        }
                                    }
                                }
                            }
                        }
                    }
                }
            }
        }
    }
    JOINT LeftHip
    {
        OFFSET   9.782990   0.000000   0.000000
        CHANNELS 3 Zrotation Xrotation Yrotation
        JOINT LeftKnee
        {
            OFFSET  -0.000063 -41.789100   0.001657
            CHANNELS 3 Zrotation Xrotation Yrotation
            JOINT LeftAnkle
            {
                OFFSET   0.000078 -41.133200  -0.000113
                CHANNELS 3 Zrotation Xrotation Yrotation
                JOINT LeftToe
                {
                    OFFSET   0.000000  -6.358970  14.674500
                    CHANNELS 3 Zrotation Xrotation Yrotation
                    End Site
                    {
                        OFFSET   0.000000   0.000000   3.913200
                    }
                }
            }
        }
    }
    JOINT RightHip
    {
        OFFSET  -9.782990   0.000000   0.000000
        CHANNELS 3 Zrotation Xrotation Yrotation
        JOINT RightKnee
        {
            OFFSET   0.000053 -41.789200   0.000277
            CHANNELS 3 Zrotation Xrotation Yrotation
            JOINT RightAnkle
            {
                OFFSET   0.000030 -41.133200  -0.000150
                CHANNELS 3 Zrotation Xrotation Yrotation
                JOINT RightToe
                {
                    OFFSET   0.000000  -6.358960  14.674500
                    CHANNELS 3 Zrotation Xrotation Yrotation
                    End Site
                    {
                        OFFSET   0.000000   0.000000   3.913200
                    }
                }
            }
        }
    }
}
MOTION
Frames: 4
Frame Time:   0.016667
 -0.536814  89.531900   0.646223  -3.911060 -11.628200  -4.871350   1.000840   6.454360   0.442346   1.970120  12.915500   0.777789   0.123676   0.326434   0.002934   0.202776   0.663705  -2.750290  -4.459030  -1.201400   1.058590 -75.014600  21.806400  -3.886890  -2.158830  -9.561880 -14.650900  11.612400  -2.844780   2.428700  38.163600  27.817200 -54.859500 -30.190100  -0.018815  -0.010897 -10.095000  -0.015304  -0.020686 -20.396400   3.723580  -9.907350 -16.952100   0.001027   0.042501 -11.860900   0.002200   0.029739 -21.495700   1.077260  -2.722620 -21.521500   0.056317   0.063132 -14.333300  -0.015856   0.061438 -20.789800   1.039420  -2.735650 -20.813700   0.009542   0.004388 -13.862300   0.007001   0.007696 -22.698200   1.130120  -2.699470 -34.089500   0.017273   0.036514 -22.702100  -0.018519   0.019510   7.789110   2.796180  10.088600  44.862200   6.206470  42.477700 -44.939300  -9.213410  53.802700 -55.580500  16.716700   8.457280 -45.983200  52.260900  91.219500  45.581400   0.017247  -0.017276  20.101600   0.027246   0.032386  -5.992700   0.989632  -9.629770   0.000000  -0.003263   0.001376   0.000000  -0.002280   0.000773  89.112400  -9.686590  -0.142341  91.355400  -0.068011   0.014234  68.516600  -0.006622   0.052046  87.295700  -9.683810  -0.487625  86.763400  -0.096935   0.012319  65.072600  -0.021321   0.070033  87.506700 -10.346700  -0.481278 110.000000   0.000144  -0.003862  80.000000   0.000000  -0.008660   2.608980  14.899200   2.950790   0.798281  -0.044001   7.163470  -0.804190  -4.129480   3.557400   0.000000   0.000000  -0.000000   4.980960  12.853600  -0.316470  -1.808000   2.322550  -4.695180  -0.977367  -4.638150  -0.147173   0.000000   0.000000  -0.000000
 -0.561036  89.532400   0.675732  -3.899610 -11.623800  -4.836790   1.001860   6.457680   0.465655   1.969460  12.922400   0.824692   0.187992   0.338980   0.002860   0.308974   0.688363  -0.453259  -4.473550  -1.271190   1.027690 -75.027100  21.789400  -3.880170  -2.127370  -9.542640 -14.633800  11.630500  -2.857440   2.443620  38.159300  27.825000 -54.862700 -30.204600  -0.026831   0.015867 -10.102700  -0.035330   0.009469 -20.392200   3.720010  -9.896370 -16.948200   0.000639   0.003105 -11.861100   0.002295   0.002153 -21.515800   1.073530  -2.715830 -21.541400   0.005605   0.006231 -14.346600  -0.001649   0.006130 -20.791500   1.035850  -2.729120 -20.815600   0.022852   0.015334 -13.863500   0.006817   0.020613 -22.699800   1.126210  -2.693050 -34.090800   0.021501   0.047417 -22.703500  -0.024198   0.024856   7.883410   2.716510  10.042400  46.268400   6.291160  42.526600 -44.953000 -10.892600  53.347500 -53.710100  15.859900   5.819520 -46.348700  52.505300  91.672600  44.534500   0.012840  -0.012509  19.184900   0.019312   0.023020  -6.399840   1.160690 -10.222300   0.000050  -0.003258   0.001409   0.000000  -0.002269   0.000789  89.051800 -10.290500  -0.165741  92.474600  -0.043658   0.011481  69.356000  -0.002033   0.034195  88.631100 -10.307000  -0.262697  88.335700  -0.062143   0.010467  66.251800  -0.008838   0.048363  88.536100 -10.416700  -0.285433 110.000000   0.000135  -0.003780  80.000000   0.000000  -0.008591   2.614100  14.898800   2.951820   0.800722  -0.030805   7.146130  -0.813666  -4.149500   3.538950  -0.000000   0.000000  -0.000000   4.988730  12.871700  -0.307068  -1.807730   2.319310  -4.710420  -0.994513  -4.660000  -0.180682   0.000000   0.000000  -0.000000
 -0.586298  89.533100   0.706916  -3.885900 -11.622500  -4.795620   1.005290   6.459780   0.479791   1.974740  12.926800   0.852813   0.243194   0.351352   0.002786   0.399751   0.712576   1.861210  -4.486800  -1.330020   1.013590 -75.047600  21.756300  -3.875870  -2.104830  -9.521740 -14.615800  11.647500  -2.878400   2.458600  38.154300  27.832900 -54.866700 -30.220100  -0.027976   0.042631 -10.110000  -0.042714   0.028958 -20.390100   3.718290  -9.886690 -16.946400   0.000231  -0.023063 -11.862500   0.002382  -0.016164 -21.529100   1.069060  -2.707750 -21.554400  -0.022299  -0.024974 -14.355200   0.006536  -0.024249 -20.798400   1.032270  -2.721150 -20.822900   0.028933   0.020793 -13.868100   0.006555   0.026723 -22.706900   1.122270  -2.685190 -34.099700   0.022105   0.048974 -22.710400  -0.025010   0.025619   7.968860   2.674440  10.016500  47.586000   6.322430  42.553800 -45.035000 -12.441100  53.057000 -52.003500  14.981900   3.837140 -47.030500  53.052800  92.525400  43.486500   0.006498  -0.005919  18.294500   0.009801   0.011073  -6.826230   1.267780 -10.492800   0.000099  -0.003252   0.001440   0.000000  -0.002259   0.000806  88.986700 -10.567500  -0.189045  93.518600  -0.019659   0.007101  70.139000   0.000243   0.016052  89.226400 -10.568300  -0.145963  89.830100  -0.026627   0.007211  67.372500  -0.000461   0.021423  88.989600 -10.426700  -0.186777 110.000000   0.000128  -0.003696  80.000000   0.000000  -0.008509   2.617260  14.896700   2.955330   0.805083   0.001221   7.126240  -0.823559  -4.178470   3.514530  -0.000000   0.000000   0.000000   4.997150  12.894000  -0.291688  -1.807180   2.316440  -4.737740  -1.009510  -4.683680  -0.214715   0.000000   0.000000   0.000000
 -0.610671  89.533400   0.740236  -3.870270 -11.623900  -4.751480   1.014510   6.462380   0.487361   1.992300  12.932200   0.867744   0.281909   0.360674   0.002716   0.463393   0.731268   4.168020  -4.503100  -1.388070   0.997583 -75.073500  21.712800  -3.863480  -2.100240  -9.504250 -14.602000  11.661800  -2.912260   2.471140  38.159500  27.857300 -54.883700 -30.236200  -0.012269   0.022455 -10.113600  -0.018725   0.012977 -20.415700   3.721120  -9.880300 -16.967200  -0.000197  -0.010151 -11.877600   0.002458  -0.007131 -21.526600   1.063350  -2.693910 -21.553400  -0.008431  -0.008604 -14.353300   0.007016  -0.008835 -20.818200   1.028990  -2.706900 -20.842500   0.012831   0.009293 -13.881100   0.006228   0.011862 -22.727700   1.118610  -2.671060 -34.130400   0.009466   0.021667 -22.731100  -0.011149   0.011135   8.048580   2.635210   9.997510  48.893300   6.134260  42.485200 -45.027000 -13.609200  53.082900 -50.694300  14.371200   2.371560 -48.405000  53.835900  94.250800  42.465400   0.003166  -0.002667  17.384200   0.003745   0.004138  -7.086820   1.236560 -10.004300   0.000050  -0.003239   0.001461   0.000000  -0.002256   0.000832  88.984600 -10.078700  -0.179308  94.633400  -0.009472   0.003888  70.975100   0.000231   0.007902  89.108100 -10.071700  -0.155965  91.276800  -0.011943   0.003987  68.457500   0.000491   0.009935  89.002500 -10.189300  -0.173098 110.000000   0.000127  -0.003606  80.000000  -0.000000  -0.008413   2.619160  14.886000   2.964920   0.810304   0.063343   7.101250  -0.833769  -4.228710   3.485590   0.000000   0.000000   0.000000   5.005390  12.922100  -0.279275  -1.807460   2.310320  -4.764340  -1.021380  -4.706710  -0.249244   0.000000   0.000000   0.000000
